<?xml version="1.0" encoding="UTF-8" standalone="no"?>
<svg
  xmlns:dc="http://purl.org/dc/elements/1.1/"
  xmlns:cc="http://creativecommons.org/ns#"
  xmlns:rdf="http://www.w3.org/1999/02/22-rdf-syntax-ns#"
  xmlns:svg="http://www.w3.org/2000/svg"
  xmlns="http://www.w3.org/2000/svg"
  xmlns:sodipodi="http://sodipodi.sourceforge.net/DTD/sodipodi-0.dtd"
  xmlns:inkscape="http://www.inkscape.org/namespaces/inkscape"
  inkscape:version="1.0beta2 (2b71d25, 2019-12-03)"
  sodipodi:docname="logo-header.svg"
  version="1.1"
  id="svg2"
  xml:space="preserve"
  width="450"
  height="200"
  viewBox="0 0 450 200">

  <style id="style1135">
    .icon-shape {
      fill: #ffffff;
      fill-opacity: 1;
      stroke: #419350;
      stroke-opacity: 1;
    }
    .icon-fill {
      stroke-width: .5;
      stroke-linecap: butt;
      stroke-linejoin: miter;
      stroke-miterlimit: 10;
      stroke-dasharray: none;
    }
    .icon-text {
      fill: #419350;
      stroke-width: 1.33333;
      font-variant: normal;
      font-weight: normal;
      font-stretch: normal;
      font-family: 'Trajan Pro', 'Cinzel', serif;
      -inkscape-font-specification: TrajanPro-Regular;
      writing-mode: lr-tb;
      fill-rule: nonzero;
      stroke: none;
    }
    .icon-text--main {
      font-size: 52px;
    }
    .icon-text--sub {
      font-size: 14.66670000000000051px;
    }
    .icon-bg {
      fill: #419350;
      fill-opacity: 1;
    }
    .icon-bg path {
      fill-rule: nonzero;
      stroke: none;
    }
    .icon-circle {
      stroke-linecap: butt;
      stroke-linejoin: miter;
      stroke-miterlimit: 10;
      stroke-dasharray: none;
      stroke-opacity: 0;
    }
  </style>
  <sodipodi:namedview
    inkscape:current-layer="svg2"
    inkscape:window-maximized="0"
    inkscape:window-y="79"
    inkscape:window-x="122"
    inkscape:cy="93.54461"
    inkscape:cx="218.09183"
    inkscape:zoom="3.9489844"
    inkscape:pagecheckerboard="true"
    showgrid="false"
    id="namedview196"
    inkscape:window-height="1194"
    inkscape:window-width="2374"
    inkscape:pageshadow="2"
    inkscape:pageopacity="0"
    guidetolerance="10"
    gridtolerance="10"
    objecttolerance="10"
    borderopacity="1"
    inkscape:document-rotation="0"
    bordercolor="#666666"
    pagecolor="#ffffff" />
  <metadata id="metadata8">
    <rdf:RDF>
      <cc:Work rdf:about="">
        <dc:format>image/svg+xml</dc:format>
        <dc:type rdf:resource="http://purl.org/dc/dcmitype/StillImage" />
        <dc:title />
      </cc:Work>
    </rdf:RDF>
  </metadata>
  <defs id="defs6">
    <clipPath id="clipPath22" clipPathUnits="userSpaceOnUse">
      <path id="path20" d="M 0,264 H 445.333 V 0 H 0 Z" inkscape:connector-curvature="0" />
    </clipPath>
    <clipPath id="clipPath78" clipPathUnits="userSpaceOnUse">
      <path id="path76" d="M 0,264 H 445.333 V 0 H 0 Z" inkscape:connector-curvature="0" />
    </clipPath>
  </defs>
  <text id="text14" x="19.564453" y="170.85271" class="icon-text icon-text--main"><tspan id="tspan12">PLANTA&amp;CORTA</tspan></text>
  <text id="text70" x="128.64235" y="191.49724" class="icon-text icon-text--sub"><tspan id="tspan68">SERVIÇOS DE JARDINAGEM</tspan></text>
  <g id="g16" transform="matrix(1.3333333,0,0,-1.3333332,-63.694992,290.64042)" class="icon-bg">
    <g id="g18" clip-path="url(#clipPath22)">
      <g id="g24" transform="translate(169.4023,173.2109)">
        <path inkscape:connector-curvature="0" d="M 0,0 C -0.658,-0.062 -1.332,-0.07 -1.941,-0.016 -1.337,-0.112 -0.789,-0.112 0,0" id="path26" />
      </g>
      <g id="g28" transform="translate(178.6533,169.4053)">
        <path inkscape:connector-curvature="0" d="m 0,0 c 0,0 -0.202,-16.607 -1.081,-20.247 -0.879,-3.64 -2.094,-8.586 -9.051,-14.556 l -0.074,0.002 c -7.071,5.835 -7.477,10.891 -8.426,14.515 -0.95,3.622 -1.474,20.219 -1.474,20.219 0,0 -0.164,0.37 1.517,0.697 1.678,0.326 5.453,1.379 5.453,1.379 0.561,-0.18 1.162,-0.279 1.756,-0.327 -0.582,0.059 -1.16,0.179 -1.683,0.399 l 0.074,2.139 c 0.041,-0.011 0.077,-0.021 0.117,-0.033 -0.035,0.019 -0.084,0.033 -0.115,0.051 0,0 -1.311,0.162 -0.362,2.573 0,0 0.443,3.63 0.393,7.084 -0.038,2.529 -0.612,21.987 -0.574,23.118 0.047,1.391 2.859,1.343 2.859,1.343 0,0 2.509,0.056 3.182,-0.225 0,0 1.252,-0.196 1.281,-1.327 0.03,-1.131 -1.268,-22.898 -1.268,-22.898 0,0 -0.462,-6.077 0.378,-7.306 0,0 0.908,-2.008 -0.337,-2.435 -0.084,-0.029 -0.181,-0.05 -0.271,-0.075 0.09,0.018 0.175,0.035 0.269,0.056 L -7.512,1.983 c 0,0 -0.951,-0.242 -2.178,-0.323 1.203,0.061 2.105,0.25 2.105,0.25 0,0 4.37,-0.954 6.055,-1.246 C 0.154,0.37 0,0 0,0 m 21.261,29.838 c -15.942,17.602 -43.135,18.948 -60.737,3.006 -17.601,-15.942 -18.947,-43.135 -3.005,-60.737 15.941,-17.601 43.134,-18.948 60.736,-3.005 17.601,15.941 18.948,43.134 3.006,60.736" id="path30" />
      </g>
      <g id="g32" transform="translate(247.1699,165.2891)">
        <path inkscape:connector-curvature="0" d="m 0,0 -1.501,-1.543 c 1.09,0.892 1.586,1.663 1.586,1.663 0,0.002 10e-4,0.003 10e-4,0.005 z" id="path34" />
      </g>
      <g id="g36" transform="translate(261.7441,177.377)">
        <path inkscape:connector-curvature="0" d="M 0,0 C 0.074,-0.112 0.094,-0.261 0.092,-0.42 0.131,-0.125 0.083,0.016 0.083,0.016 L 3.282,-2.201 -0.301,0.281 C -0.158,0.168 -0.043,0.066 0,0" id="path38" />
      </g>
      <g id="g40" transform="translate(266.4258,161.2734)">
        <path inkscape:connector-curvature="0" d="M 0,0 C -0.09,-0.018 -0.189,-0.034 -0.302,-0.051 -0.203,-0.038 -0.104,-0.021 0,0" id="path42" />
      </g>
      <g id="g44" transform="translate(253.7383,161.3262)">
        <path inkscape:connector-curvature="0" d="M 0,0 C 0,0 0.016,0.005 0.043,0.015 0.025,0.009 0,0 0,0" id="path46" />
      </g>
      <g id="g48" transform="translate(265.8896,161.1943)">
        <path inkscape:connector-curvature="0" d="M 0,0 C -0.021,-0.002 -0.042,-0.004 -0.063,-0.006 -0.043,-0.005 -0.021,-0.002 0,0" id="path50" />
      </g>
      <g id="g52" transform="translate(264.0117,175.1592)">
        <path inkscape:connector-curvature="0" d="m 0,0 c -0.172,0.002 -0.347,0.007 -0.506,0.017 -0.64,0.039 -1.041,-0.241 -1.541,-0.96 -0.501,-0.721 0.119,-3.803 0.119,-3.803 l -3.021,-1.384 -0.866,1.269 c 0,0 0.331,0.954 1.086,2.255 -1.236,-2.053 -1.421,-3.181 -1.421,-3.181 0.578,-1.748 0.486,-3.141 0.072,-4.254 0.031,0.074 0.065,0.144 0.093,0.221 h 1.506 c 0,0 0.75,2.491 2.881,0 l 0.782,-0.06 v -2.821 c 0,0 0.42,-0.862 1.55,-1.17 C 0.735,-13.859 1.492,-3.181 0,0" id="path54" />
      </g>
      <g id="g56" transform="translate(300.4492,150.6602)">
        <path inkscape:connector-curvature="0" d="m 0,0 c -1.021,0.34 -3.803,2.741 -4.583,3.082 -0.78,0.34 -3.19,0.136 -4.022,0.18 -2.262,0.12 -4.262,2.135 -5.164,2.289 -0.901,0.152 -2.804,-0.025 -4.304,-0.006 -1.499,0.018 -1.199,0.619 -3.241,1.039 -2.041,0.42 -5.403,-0.4 -6.364,0.34 -0.752,0.58 -3.822,0.801 -6.164,0.1 -2.054,-0.615 -2.118,-1.38 -3.392,-1.908 -0.352,-0.145 -2.454,-0.148 -1.751,1.088 0,0 1.17,1.581 2.651,2.883 -0.91,-0.726 -1.919,-1.729 -2.794,-3.083 0,0 -7.222,4.637 -7.583,4.662 -2,0.24 -4.762,-1.12 -4.762,-1.12 -10.287,-5.044 -17.892,-0.04 -19.693,1.281 -1.801,1.32 -0.36,1.481 -0.36,1.481 9.115,-3.706 14.35,-1.18 16.739,0.773 -2.071,-0.083 -4.352,0.218 -4.352,0.218 -8.646,1.17 -11.677,8.585 -11.677,8.585 -0.51,1.111 0.15,0.961 0.15,0.961 1.381,-0.931 21.715,-1.892 21.715,-1.892 l 8.445,7.085 1.416,1.112 c 3.258,-1.088 5.908,-0.892 7.549,-0.352 3.283,1.661 29.54,8.046 29.54,8.046 3.292,-1.001 0.62,-3.073 0.62,-3.073 0,0 -0.98,-0.25 -5.344,-0.61 -7.327,-0.605 -17.81,-5.123 -17.81,-5.123 -5.363,-3.122 -10.888,-3.522 -10.888,-3.522 h 0.16 c 0,0 5.076,-4.802 1.577,-13.828 0,0 -0.023,-0.009 -0.058,-0.024 0.122,0.033 0.244,0.065 0.363,0.082 1.442,0.461 7.465,0.541 11.287,-0.279 C -19.779,10.014 -7.846,7.745 -2.441,4.362 -1.289,3.488 0.941,1.44 1.121,0.96 1.301,0.479 1.021,-0.341 0,0 m -35.45,62.718 c -23.748,0 -43,-19.252 -43,-43 0,-23.748 19.252,-43 43,-43 23.748,0 43,19.252 43,43 0,23.748 -19.252,43 -43,43" id="path58" />
      </g>
      <g id="g60" transform="translate(260.3232,174.1279)">
        <path inkscape:connector-curvature="0" d="M 0,0 C 0.005,0.008 0.011,0.015 0.016,0.022 0.011,0.015 0.005,0.008 0,0" id="path62" />
      </g>
      <g id="g64" transform="translate(253.8418,161.3613)">
        <path inkscape:connector-curvature="0" d="M 0,0 C 0.021,0.008 0.041,0.015 0.066,0.024 0.045,0.017 0.019,0.007 0,0" id="path66" />
      </g>
    </g>
  </g>
  <g id="g80" transform="matrix(1.3333333,0,0,-1.3333332,117.86754,101.95684)" class="icon-bg icon-circle">
    <path inkscape:connector-curvature="0" d="M 0,0 C -15.941,17.602 -14.596,44.795 3.006,60.736 20.607,76.679 47.801,75.333 63.742,57.73 79.685,40.129 78.338,12.936 60.736,-3.006 43.135,-18.948 15.941,-17.602 0,0 Z" id="path82" />
  </g>
  <g id="g84" transform="matrix(1.3333333,0,0,-1.3333332,160.9014,111.16777)" class="icon-shape icon-fill">
    <path inkscape:connector-curvature="0" d="m 0,0 c -7.071,5.835 -7.477,10.891 -8.426,14.515 -0.95,3.622 -1.474,20.218 -1.474,20.218 0,0 -0.163,0.371 1.517,0.698 1.678,0.326 5.453,1.379 5.453,1.379 2.399,-0.767 5.551,-0.099 5.551,-0.099 0,0 4.37,-0.954 6.055,-1.246 1.684,-0.294 1.53,-0.664 1.53,-0.664 0,0 -0.202,-16.608 -1.081,-20.247 C 8.246,10.914 7.031,5.968 0.074,-0.002" id="path86" />
  </g>
  <g id="g88" transform="matrix(1.3333333,0,0,-1.3333332,164.59407,59.239376)" class="icon-shape icon-fill">
    <path inkscape:connector-curvature="0" d="m 0,0 -0.075,-2.162 c 0,0 -3.3,-0.85 -5.552,0.098 l 0.074,2.138 C -3.326,-0.531 -2.951,-0.626 0,0 Z" id="path90" />
  </g>
  <g id="g92" transform="matrix(1.3333333,0,0,-1.3333332,164.5238,13.925648)" class="icon-shape icon-fill">
    <path inkscape:connector-curvature="0" d="m 0,0 c 0,0 1.252,-0.196 1.281,-1.327 0.031,-1.131 -1.267,-22.898 -1.267,-22.898 0,0 -0.463,-6.077 0.378,-7.306 0,0 0.907,-2.008 -0.337,-2.435 -1.741,-0.6 -4.537,-0.527 -5.553,0.073 0,0 -1.311,0.163 -0.361,2.573 0,0 0.442,3.631 0.392,7.084 -0.038,2.529 -0.612,21.987 -0.574,23.118 0.047,1.391 2.859,1.344 2.859,1.344 0,0 2.509,0.055 3.182,-0.226" id="path94" />
  </g>
  <g id="g96" transform="matrix(1.3333333,0,0,-1.3333332,156.99514,62.08831)" class="icon-shape icon-fill">
    <path inkscape:connector-curvature="0" d="M 0,0 C 0.174,-0.589 0.195,-12.009 2.428,-12.085 5.202,-12.182 5.551,-0.099 5.551,-0.099 5.551,-0.099 2.248,-1.021 0,0" id="path98" />
  </g>
  <g id="g100" transform="matrix(1.3333333,0,0,-1.3333332,284.92353,81.488041)" class="icon-shape icon-fill">
    <path inkscape:connector-curvature="0" d="M 0,0 C 0,0 3.103,4.202 5.604,4.542 7.046,5.003 13.069,5.083 16.892,4.263 19.206,3.81 31.14,1.541 36.544,-1.842 c 1.152,-0.874 3.383,-2.922 3.562,-3.402 0.18,-0.481 -0.099,-1.301 -1.121,-0.96 -1.02,0.34 -3.802,2.741 -4.583,3.082 -0.78,0.34 -3.19,0.136 -4.022,0.18 -2.262,0.12 -4.262,2.135 -5.163,2.289 -0.902,0.152 -2.805,-0.025 -4.305,-0.006 C 19.413,-0.641 19.713,-0.04 17.671,0.38 15.63,0.8 12.269,-0.021 11.308,0.72 10.556,1.3 7.485,1.521 5.144,0.82 3.089,0.205 3.025,-0.561 1.751,-1.088 1.399,-1.233 -0.702,-1.236 0,0" id="path102" />
  </g>
  <g id="g108" transform="matrix(1.3333333,0,0,-1.3333332,284.7842,50.893111)" class="icon-shape icon-fill">
    <path inkscape:connector-curvature="0" d="m 0,0 -1.416,-1.112 5.083,-3.523 c 0,0 5.524,0.401 10.888,3.523 0,0 10.483,4.517 17.81,5.123 4.364,0.36 5.344,0.61 5.344,0.61 0,0 2.672,2.071 -0.62,3.072 0,0 -26.257,-6.384 -29.54,-8.046 C 5.908,-0.893 3.258,-1.089 0,0 Z" id="path110" />
  </g>
  <g id="g112" transform="matrix(1.3333333,0,0,-1.3333332,271.63567,61.82271)" class="icon-shape icon-fill">
    <path inkscape:connector-curvature="0" d="m 0,0 c 0,0 -20.334,0.961 -21.715,1.892 0,0 -0.66,0.15 -0.15,-0.961 0,0 3.031,-7.415 11.677,-8.585 0,0 2.282,-0.301 4.354,-0.218 l 1.506,1.548" id="path114" />
  </g>
  <g id="g104" transform="matrix(1.3333333,0,0,-1.3333332,282.8962,52.376177)" class="icon-shape icon-fill">
    <path inkscape:connector-curvature="0" d="m 0,0 -8.445,-7.085 c 0,0 -3.643,-0.801 -4.243,-6.204 0,0 -5.043,-7.845 -18.333,-2.441 0,0 -1.44,-0.161 0.361,-1.481 1.801,-1.321 9.406,-6.325 19.693,-1.281 0,0 2.762,1.36 4.762,1.12 0,0 6.164,1.882 4.123,8.046 0,0 0.357,2.231 3.529,6.154 0,0 0.709,1.311 0.354,1.851 C 1.598,-1.013 0,0 0,0 Z" id="path106" />
  </g>
  <g id="g116" transform="matrix(1.3333333,0,0,-1.3333332,274.62273,75.538842)" class="icon-shape icon-fill">
    <path inkscape:connector-curvature="0" d="m 0,0 c 0,0 3.201,0.98 4.288,4.013 h 1.507 c 0,0 0.75,2.491 2.881,0 L 9.457,3.953 V 1.132 c 0,0 0.893,-1.83 3.568,-1.111 0,0 -3.173,-1.171 -5.442,-4.683 0,0 -7.222,4.637 -7.583,4.662 z" id="path118" />
  </g>
  <g id="g120" transform="matrix(1.3333333,0,0,-1.3333332,280.56673,63.576576)" class="icon-shape icon-fill">
    <path inkscape:connector-curvature="0" d="m 0,0 0.866,-1.269 3.022,1.384 c 0,0 -0.62,3.082 -0.119,3.803 0.5,0.72 0.9,0.999 1.541,0.96 0.639,-0.04 1.52,0 1.52,0 L 3.631,7.095 c 0,0 0.333,-0.863 -1.319,-3.01 C 0.657,1.938 0,0 0,0 Z" id="path122" />
  </g>
  <g id="g124" transform="matrix(1.3333333,0,0,-1.3333332,289.887,57.07271)" class="icon-shape icon-fill">
    <path inkscape:connector-curvature="0" d="m 0,0 c 0,0 5.075,-4.802 1.577,-13.828 0,0 -1.324,-0.358 -2.017,-0.061 0,0 0.761,10.727 -0.743,13.889 h 1.023" id="path126" />
  </g>
  <g id="g128" transform="matrix(1.3333333,0,0,-1.3333332,275.5446,68.646976)">
    <path inkscape:connector-curvature="0" d="m 0,0 c 0,-0.622 -0.504,-1.126 -1.126,-1.126 -0.622,0 -1.126,0.504 -1.126,1.126 0,0.622 0.504,1.126 1.126,1.126 C -0.504,1.126 0,0.622 0,0" id="path130" />
  </g>
  <g id="g132" transform="matrix(1.3333333,0,0,-1.3333332,275.5446,68.646976)" class="icon-bg icon-circle">
    <path inkscape:connector-curvature="0" d="m 0,0 c 0,-0.622 -0.504,-1.126 -1.126,-1.126 -0.622,0 -1.126,0.504 -1.126,1.126 0,0.622 0.504,1.126 1.126,1.126 C -0.504,1.126 0,0.622 0,0 Z" id="path134" />
  </g>
</svg>
